<?xml version="1.0" standalone="no"?>
<!DOCTYPE svg PUBLIC "-//W3C//DTD SVG 20010904//EN"
 "http://www.w3.org/TR/2001/REC-SVG-20010904/DTD/svg10.dtd">
<svg version="1.0" xmlns="http://www.w3.org/2000/svg"
 width="1280.000000pt" height="814.000000pt" viewBox="0 0 1280.000000 814.000000"
 preserveAspectRatio="xMidYMid meet">
<metadata>
Created by potrace 1.15, written by Peter Selinger 2001-2017
</metadata>
<g transform="translate(0.000000,814.000000) scale(0.100000,-0.100000)"
fill="#000000" stroke="none">
<path d="M845 7750 c8 -50 1 -51 -80 -8 -65 33 -95 33 -95 -2 0 -21 -14 -27
-25 -10 -3 5 -13 6 -21 3 -13 -5 -15 -15 -10 -50 7 -56 29 -98 75 -147 23 -25
29 -37 18 -32 -42 14 -161 27 -195 21 -52 -10 -54 -12 -37 -46 16 -30 9 -39
-13 -17 -8 8 -15 9 -22 2 -14 -14 1 -53 29 -78 11 -11 21 -31 21 -45 0 -58 65
-126 357 -374 294 -249 788 -651 1083 -882 91 -71 231 -182 312 -247 81 -65
158 -123 170 -129 13 -5 34 -26 47 -45 13 -19 47 -56 75 -82 28 -26 62 -62 75
-81 l24 -34 -36 7 c-31 6 -37 4 -37 -10 0 -9 52 -107 116 -218 131 -226 134
-231 105 -196 -38 46 -25 -7 25 -99 53 -98 98 -153 244 -301 58 -58 125 -128
150 -155 25 -28 62 -65 82 -84 50 -44 102 -136 109 -190 5 -43 4 -44 -37 -70
-108 -66 -160 -90 -319 -144 -168 -57 -260 -79 -382 -91 -35 -4 -86 -17 -115
-30 -29 -13 -66 -28 -82 -35 -21 -9 -26 -15 -17 -20 7 -5 -11 -11 -46 -15 -64
-8 -175 -44 -168 -56 2 -4 33 -11 67 -15 l63 -8 -39 -12 -40 -11 60 -13 c32
-6 131 -16 219 -21 232 -14 406 -29 605 -50 96 -10 265 -26 375 -36 l200 -17
50 -37 c28 -20 71 -49 97 -64 25 -15 52 -34 59 -42 11 -13 9 -14 -17 -8 -16 4
-39 11 -51 15 -28 10 -29 5 -2 -37 15 -25 18 -38 10 -51 -8 -16 -12 -13 -26
20 -17 42 -30 47 -39 15 -10 -40 -6 -67 12 -77 9 -5 25 -23 36 -41 l18 -32
-30 16 c-39 20 -56 21 -45 2 13 -23 114 -95 149 -106 52 -18 51 -38 -2 -30
-24 4 -44 3 -44 -1 0 -8 79 -54 172 -100 31 -16 59 -32 62 -37 3 -5 -29 -3
-72 3 -42 7 -81 9 -86 4 -24 -22 60 -88 192 -149 40 -18 49 -26 36 -30 -14 -5
-4 -16 45 -54 70 -54 202 -107 375 -152 l109 -28 -40 -17 c-38 -16 -76 -50
-42 -37 46 17 132 38 137 33 8 -8 -26 -40 -67 -62 -45 -25 -55 -49 -16 -39 15
4 41 9 59 12 28 4 29 3 9 -7 -42 -22 -36 -47 20 -84 29 -18 67 -44 85 -58 28
-21 30 -26 15 -32 -16 -6 -15 -8 7 -20 l25 -14 -26 -1 c-14 0 -29 -3 -32 -7
-13 -12 16 -33 45 -33 16 0 39 -5 50 -11 21 -11 21 -12 3 -25 -18 -13 -18 -14
0 -34 17 -19 67 -37 258 -91 43 -12 97 -35 119 -51 24 -18 62 -33 96 -39 91
-16 137 -33 137 -49 0 -16 36 -25 143 -36 78 -7 132 -37 132 -73 0 -9 16 -32
35 -51 19 -19 35 -44 35 -55 0 -15 53 -72 168 -181 l169 -159 105 -240 c70
-159 108 -259 113 -295 5 -40 15 -63 35 -85 35 -37 31 -76 -11 -106 -16 -11
-29 -26 -29 -34 0 -22 -57 -63 -97 -70 -48 -8 -104 -51 -84 -64 17 -11 50 -3
80 21 13 10 49 25 80 34 31 9 88 28 127 44 39 15 86 31 105 34 l34 7 -24 -21
c-13 -11 -30 -24 -36 -28 -7 -4 -16 -20 -22 -37 -7 -22 -18 -31 -42 -36 -43
-9 -70 -34 -53 -51 9 -9 13 -8 18 5 6 17 42 31 109 42 22 4 61 20 87 36 100
61 107 62 192 25 42 -18 95 -46 118 -61 40 -27 45 -28 137 -22 86 5 98 8 117
31 12 14 38 28 59 32 21 4 46 15 57 26 10 10 33 21 51 25 18 3 38 10 45 16 9
7 12 2 12 -22 0 -36 8 -39 37 -11 34 31 38 73 13 125 -28 59 -53 59 -109 3
-37 -38 -47 -43 -84 -41 -23 1 -71 11 -107 22 -36 11 -77 21 -92 21 -14 0 -56
13 -91 29 -50 22 -72 40 -93 70 -15 23 -42 50 -60 62 -18 11 -52 43 -75 72
-24 29 -77 90 -119 137 -42 47 -155 178 -252 292 -180 211 -202 245 -227 359
-11 47 -4 52 89 63 30 4 90 21 132 38 43 17 81 29 84 25 15 -15 -24 -39 -104
-64 -48 -15 -81 -28 -75 -30 19 -7 139 25 232 62 90 35 141 44 141 25 0 -18
18 -11 25 10 3 11 11 20 16 20 6 0 7 -9 4 -22 -6 -18 -4 -20 11 -13 11 4 30
10 44 12 l25 4 -24 -20 c-17 -16 -19 -21 -7 -21 26 0 89 33 123 64 18 16 36
26 40 23 4 -4 1 -13 -5 -19 -23 -23 -12 -27 21 -8 17 11 41 20 52 20 14 -1 8
-8 -23 -27 -58 -35 -46 -41 18 -9 28 14 64 26 78 26 15 0 55 13 89 29 34 16
64 27 67 24 3 -3 13 0 22 8 14 11 18 12 22 1 3 -10 8 -7 19 7 18 27 37 28 23
2 -14 -27 -13 -31 7 -24 31 12 197 105 228 128 17 12 53 35 80 51 l50 28 -55
-64 c-49 -58 -51 -62 -20 -40 19 13 41 32 47 41 15 20 107 89 119 89 4 0 3 -5
-4 -12 -24 -24 -11 -27 26 -6 34 20 36 20 21 2 -67 -83 -137 -171 -143 -182
-5 -8 10 -4 33 10 40 22 132 109 291 278 69 73 71 74 50 32 -12 -24 -19 -46
-17 -49 8 -7 106 114 158 196 26 41 103 133 171 205 171 181 249 272 291 336
60 90 67 100 79 100 6 0 8 -11 5 -27 -5 -26 -4 -27 10 -8 8 11 40 62 70 113
31 51 57 91 59 89 2 -2 -18 -59 -46 -126 -27 -67 -44 -121 -38 -119 17 6 116
188 117 214 1 12 13 39 27 60 36 53 104 194 104 216 0 10 5 18 10 18 6 0 10
-11 10 -25 0 -20 5 -25 24 -25 42 0 55 11 62 48 4 21 13 50 21 66 8 16 21 50
29 76 8 26 21 53 29 60 7 6 19 28 25 48 6 20 14 43 16 51 4 11 8 10 18 -5 19
-26 40 -6 61 55 14 43 14 70 3 242 -14 215 -14 302 -4 589 7 174 10 203 33
265 51 139 119 255 268 461 42 58 47 62 102 73 44 10 77 10 138 2 111 -16 514
-51 580 -51 62 0 70 12 32 48 -46 43 -318 139 -537 188 -116 27 -188 37 -288
41 l-133 6 -72 54 c-78 58 -76 54 -56 144 8 35 24 61 62 102 45 46 66 59 147
90 274 104 457 146 669 154 86 3 167 10 181 15 l24 9 -29 24 c-70 56 -242 95
-420 95 -116 0 -384 -26 -467 -45 l-57 -13 -133 68 c-265 136 -440 198 -612
215 -50 6 -67 5 -62 -4 4 -6 14 -11 22 -11 8 0 12 -4 9 -10 -3 -5 -37 -10 -74
-10 -86 0 -291 -41 -362 -73 -108 -48 -354 -226 -405 -292 -15 -20 -72 -62
-132 -97 -104 -62 -232 -168 -263 -217 -28 -45 -124 -125 -190 -158 -74 -37
-190 -62 -739 -159 -201 -35 -435 -80 -521 -99 -85 -19 -274 -50 -420 -70
-145 -19 -338 -47 -429 -61 -248 -38 -506 -50 -714 -35 -156 11 -186 17 -336
61 -158 47 -174 54 -370 167 -294 170 -468 285 -669 442 -97 76 -221 169 -276
207 -100 68 -173 128 -465 384 -187 164 -348 292 -575 459 -93 68 -222 168
-285 221 -162 136 -330 260 -351 260 -10 0 -29 10 -41 21 -25 23 -384 259
-394 259 -3 0 -3 -18 1 -40z"/>
</g>
</svg>
