<?xml version="1.0" standalone="no"?>
<!DOCTYPE svg PUBLIC "-//W3C//DTD SVG 20010904//EN"
 "http://www.w3.org/TR/2001/REC-SVG-20010904/DTD/svg10.dtd">
<svg version="1.0" xmlns="http://www.w3.org/2000/svg"
 width="1280.000000pt" height="592.000000pt" viewBox="0 0 1280.000000 592.000000"
 preserveAspectRatio="xMidYMid meet">
<metadata>
Created by potrace 1.15, written by Peter Selinger 2001-2017
</metadata>
<g transform="translate(0.000000,592.000000) scale(0.100000,-0.100000)"
fill="#000000" stroke="none">
<path d="M6565 5416 c-409 -67 -440 -74 -437 -92 3 -16 204 -798 218 -845 3
-12 -16 -20 -93 -38 -129 -31 -292 -86 -322 -109 -70 -52 -22 -66 206 -59
l183 6 -36 -47 c-43 -57 -87 -148 -109 -227 -24 -87 -30 -274 -12 -359 l14
-69 -35 -31 c-19 -17 -42 -36 -51 -43 -9 -6 -44 -44 -78 -85 -52 -61 -70 -76
-115 -92 -114 -39 -223 -123 -292 -224 -60 -88 -87 -167 -93 -272 -17 -276
187 -556 582 -801 44 -28 114 -79 155 -115 95 -83 277 -204 403 -269 53 -27
97 -54 97 -59 0 -10 -144 -284 -223 -423 l-40 -72 -141 -3 c-123 -3 -147 -6
-188 -26 -54 -27 -64 -46 -43 -78 19 -29 30 -30 86 -4 24 11 63 20 87 20 l43
0 -51 -50 c-54 -55 -59 -72 -31 -109 23 -29 52 -25 69 12 13 27 85 87 104 87
5 0 -2 -15 -16 -33 -29 -39 -49 -102 -44 -142 3 -26 8 -30 35 -33 35 -3 44 8
58 73 4 20 35 58 91 113 l86 84 114 -7 c124 -8 144 -2 144 41 0 33 -22 41
-142 49 -60 4 -108 10 -108 12 0 5 229 435 235 441 2 2 35 -8 74 -22 89 -32
242 -71 344 -87 42 -6 77 -14 77 -17 0 -3 -63 -123 -141 -268 l-140 -262 -142
-4 c-124 -4 -148 -7 -189 -28 -52 -26 -65 -48 -48 -81 13 -23 35 -23 105 5 22
8 58 15 80 15 l40 0 -32 -27 c-18 -15 -44 -42 -58 -61 -24 -33 -24 -35 -7 -63
22 -38 61 -35 80 5 13 26 91 92 99 83 2 -2 -7 -20 -20 -40 -14 -20 -30 -59
-37 -87 -12 -47 -11 -53 8 -72 33 -33 66 -12 82 52 11 45 22 61 97 131 52 48
94 80 107 80 12 0 59 -5 105 -10 71 -9 87 -9 107 5 27 17 31 47 10 64 -16 13
-30 16 -158 26 l-86 7 39 72 c22 39 85 157 141 262 l101 191 106 12 c58 6 120
14 136 17 30 5 31 3 226 -313 l195 -318 37 1 c20 0 132 1 248 2 177 2 210 4
206 16 -5 11 -391 507 -561 719 -30 37 -30 38 -10 57 19 19 23 14 349 -381
181 -219 332 -399 336 -399 10 0 440 69 465 75 23 5 -44 73 -511 520 -487 465
-465 443 -465 480 0 70 -42 366 -75 530 -86 420 -215 714 -399 903 -117 121
-234 185 -363 200 l-68 7 -3 226 -2 226 265 134 c145 74 265 137 265 140 0 3
-133 16 -296 29 -277 22 -296 25 -306 44 -6 12 -26 40 -44 62 l-33 42 47 12
c106 26 260 83 288 106 29 24 29 24 9 40 -17 14 -45 15 -215 10 -107 -3 -204
-7 -215 -8 -19 -3 -22 16 -62 422 -23 234 -42 435 -42 448 -1 12 -4 22 -8 21
-5 0 -206 -33 -448 -73z"/>
<path d="M11405 4377 c-197 -430 -380 -828 -406 -883 l-47 -101 -59 28 c-32
16 -79 35 -104 43 -25 8 -70 29 -100 49 -172 109 -379 177 -544 177 -256 0
-516 -139 -662 -352 -29 -43 -52 -67 -60 -63 -11 4 -620 -169 -630 -179 -2 -2
117 -36 264 -76 l268 -74 -3 -133 c-6 -227 41 -431 153 -658 73 -150 144 -254
234 -344 193 -193 437 -289 709 -279 57 2 92 -1 92 -7 -1 -48 -149 -595 -161
-595 -4 0 -51 9 -104 20 -53 11 -108 20 -121 20 -27 0 -48 -32 -39 -60 6 -19
14 -23 75 -36 l34 -7 -59 -21 c-33 -12 -85 -35 -115 -51 -47 -26 -55 -34 -55
-59 0 -52 23 -54 127 -9 137 60 139 61 87 6 -51 -54 -99 -125 -99 -148 0 -19
43 -47 61 -40 8 3 27 25 42 50 35 54 132 145 195 182 26 15 49 31 50 35 2 4
31 8 63 8 70 0 194 17 227 30 26 11 30 51 6 70 -12 11 -32 11 -103 2 -111 -15
-171 -15 -171 -1 0 6 11 48 24 93 13 44 36 131 51 191 56 227 75 301 82 324 7
19 23 28 93 48 85 24 228 88 307 137 l42 27 6 -33 c20 -121 36 -323 52 -649
l6 -125 -114 -13 c-116 -12 -149 -26 -149 -61 0 -29 26 -42 75 -38 l46 3 -23
-18 c-46 -37 -158 -149 -158 -159 0 -5 5 -18 10 -29 20 -36 53 -22 140 56 45
42 84 74 86 72 2 -1 -8 -25 -21 -52 -29 -58 -51 -154 -42 -178 4 -11 18 -17
37 -17 33 0 36 4 65 99 18 60 69 146 121 204 19 20 34 41 34 45 0 5 24 16 53
25 28 10 88 36 132 60 72 38 80 45 80 71 0 54 -24 55 -132 3 -54 -25 -110 -49
-124 -52 l-26 -6 -7 128 c-17 324 -25 429 -41 576 l-18 157 75 78 c75 78 137
162 176 239 l22 42 149 -39 c83 -22 200 -59 260 -84 100 -40 109 -42 101 -22
-56 146 -229 492 -328 656 -84 140 -198 301 -285 402 l-57 67 191 258 c106
142 383 514 617 826 421 563 424 568 406 588 -11 12 -44 34 -74 49 -78 39
-250 102 -264 97 -7 -3 -70 -103 -141 -223 -367 -622 -680 -1114 -740 -1164
-35 -29 -23 6 58 162 103 200 511 913 719 1256 l20 32 -136 65 c-75 36 -138
65 -139 65 -1 0 -164 -352 -362 -783z"/>
<path d="M3737 4534 c-192 -35 -365 -127 -526 -280 -58 -55 -166 -148 -239
-206 l-132 -105 -88 -6 c-322 -21 -672 -312 -1055 -877 -96 -141 -363 -578
-390 -637 -6 -13 -90 -90 -186 -171 -284 -236 -640 -543 -726 -626 l-80 -77
74 -35 c108 -50 207 -84 247 -84 44 0 95 47 577 534 186 188 336 337 333 331
-2 -5 -171 -224 -374 -485 l-370 -474 20 -39 c26 -52 92 -122 128 -137 63 -26
110 7 184 133 62 105 214 313 389 532 121 150 278 340 282 340 1 0 37 -27 79
-61 140 -111 325 -191 495 -215 42 -6 97 -17 122 -25 45 -14 47 -16 53 -61 3
-25 6 -143 6 -262 1 -232 15 -582 26 -643 6 -35 5 -38 -17 -38 -13 0 -69 16
-123 35 -115 40 -131 42 -146 16 -12 -23 -12 -32 -1 -49 10 -16 172 -77 230
-87 36 -6 55 -19 118 -84 59 -60 84 -95 117 -163 22 -49 48 -90 57 -93 23 -8
47 4 54 26 8 24 -28 120 -65 176 -43 63 -43 63 130 -61 35 -25 44 -27 65 -18
45 21 33 55 -37 109 -34 26 -78 58 -98 70 l-35 22 42 1 c40 0 73 19 73 41 0 6
-5 19 -10 30 -10 17 -22 19 -134 19 l-124 0 -11 113 c-13 114 -30 856 -21 862
3 2 32 -2 65 -7 33 -5 128 -8 211 -5 l150 5 37 -76 c61 -129 179 -342 239
-433 52 -78 95 -169 112 -241 l6 -28 -110 0 c-121 0 -150 -8 -150 -43 0 -43
16 -47 167 -47 128 0 144 -2 150 -17 4 -10 17 -32 31 -50 13 -18 36 -56 50
-85 31 -60 60 -73 85 -38 14 20 14 27 1 64 -8 22 -26 58 -39 78 -14 21 -25 40
-25 43 0 12 39 4 51 -11 7 -9 40 -29 73 -46 34 -16 82 -48 108 -69 49 -41 91
-50 102 -23 14 37 4 55 -55 102 l-61 47 86 3 c82 3 87 4 99 29 10 22 8 28 -12
44 -21 17 -43 19 -241 19 l-218 0 -16 65 c-22 89 -57 164 -120 259 -100 152
-264 463 -250 475 5 4 38 15 74 25 105 27 239 82 335 137 323 185 541 459 625
782 10 40 32 101 48 135 76 159 63 371 -33 562 -34 67 -34 69 -14 75 27 9 170
183 206 251 16 32 36 57 48 59 36 9 631 95 653 95 12 0 22 3 22 8 0 4 -82 20
-183 35 -351 54 -434 71 -402 79 17 4 154 17 305 29 151 11 276 22 278 24 6 5
-18 10 -333 75 -165 33 -310 63 -321 65 -12 3 -40 29 -62 58 -128 169 -407
251 -685 201z"/>
</g>
</svg>
